<svg xmlns="http://www.w3.org/2000/svg" width="1080" height="320" viewBox="0 0 1080 320" fill="none">
  <title>Ëкка wordmark blue</title>
  <g transform="translate(24 24)">
    <path d="M272 0H0V272H272V0Z" fill="#0A5BA2"/>
    <path d="M136 8.55C65.34 8.55 8.28 67.08 8.28 136.24C8.28 205.84 64.5 263.52 135.56 263.52C206.22 263.52 264.16 205.95 264.16 136.35C264.16 67.84 207.16 8.55 136 8.55ZM135.03 238.38C76.31 238.38 32.5 190.21 32.5 136.25C32.5 79.89 78.59 32.39 135.03 32.39C193.31 32.39 238.47 78.82 238.47 135.91C238.47 191.3 193.31 238.38 135.03 238.38Z" fill="white"/>
    <path d="M115.74 56.3C106.7 56.3 102.22 63.76 102.22 69.98C102.22 77.78 108.49 83.45 115.74 83.45C123.96 83.45 129.08 76.6 129.08 70.65C129.08 63.89 123.86 56.3 115.74 56.3Z" fill="white"/>
    <path d="M156.34 56.3C147.3 56.3 142.18 63.76 142.18 69.98C142.18 77.78 148.99 83.45 156.13 83.45C163.92 83.45 169.79 76.6 169.79 70.65C169.79 63.89 164.13 56.3 156.34 56.3Z" fill="white"/>
    <path d="M185.29 91.99H164.31C161.12 91.99 158.95 93.29 157.86 96.14L136 145.84H135.68L114.26 95.17C113.18 92.43 111.13 91.99 108.84 91.99H87.1C84.57 91.99 82.95 94.15 83.37 95.88L121.27 170.39C122.02 171.9 122.68 174.28 122.68 176.01V212C122.68 214.58 124.62 215.23 126.23 215.23H145.61C148.24 215.23 149 213.49 149 211.45V175.8C149 174.17 149.33 172.76 150.31 170.82L188.32 96.03C189.83 93.1 188.42 91.99 185.29 91.99Z" fill="white"/>
  </g>

  <g transform="translate(340 0)">
    <text x="0" y="190" fill="#0A5BA2" font-size="146" font-weight="800" font-family="Manrope, Arial, Helvetica, sans-serif" letter-spacing="0.5">
      Ëкка
    </text>
    <text x="6" y="242" fill="#084B87" font-size="34" font-weight="700" font-family="Manrope, Arial, Helvetica, sans-serif" letter-spacing="2.2">
      MARKETPLACE UI
    </text>
  </g>
</svg>
